<?xml version="1.0" encoding="UTF-8" standalone="no"?>
<!DOCTYPE svg PUBLIC "-//W3C//DTD SVG 1.1//EN"
 "http://www.w3.org/Graphics/SVG/1.1/DTD/svg11.dtd">
<!-- Generated by graphviz version 2.38.0 (20140413.2041)
 -->
<!-- Title: net_neuron Pages: 1 -->
<svg width="234pt" height="388pt"
 viewBox="0.00 0.00 233.75 388.00" xmlns="http://www.w3.org/2000/svg" xmlns:xlink="http://www.w3.org/1999/xlink">
<g id="graph0" class="graph" transform="scale(1 1) rotate(0) translate(4 384)">
<title>net_neuron</title>
<polygon fill="white" stroke="none" points="-4,4 -4,-384 229.747,-384 229.747,4 -4,4"/>
<g id="clust8" class="cluster"><title>cluster_7</title>
<polygon fill="none" stroke="black" points="30.6274,-8 30.6274,-78 195.12,-78 195.12,-8 30.6274,-8"/>
</g>
<g id="clust89" class="cluster"><title>cluster_88</title>
<polygon fill="none" stroke="black" points="8,-86 8,-372 217.747,-372 217.747,-86 8,-86"/>
</g>
<!-- item105 -->
<g id="node1" class="node"><title>item105</title>
<ellipse fill="none" stroke="black" cx="112.874" cy="-43" rx="74.4932" ry="26.7407"/>
<text text-anchor="middle" x="112.874" y="-46.8" font-family="Times,serif" font-size="14.00">id Neurona: 105</text>
<text text-anchor="middle" x="112.874" y="-31.8" font-family="Times,serif" font-size="14.00">Categoría: &#39;7&#39;</text>
</g>
<!-- item88CU -->
<g id="node2" class="node"><title>item88CU</title>
<ellipse fill="none" stroke="black" cx="112.874" cy="-337" rx="70.922" ry="26.7407"/>
<text text-anchor="middle" x="112.874" y="-340.8" font-family="Times,serif" font-size="14.00">id Neurona: 58</text>
<text text-anchor="middle" x="112.874" y="-325.8" font-family="Times,serif" font-size="14.00">Categoría: &#39;CU&#39;</text>
</g>
<!-- item88A -->
<g id="node3" class="node"><title>item88A</title>
<ellipse fill="none" stroke="black" cx="112.874" cy="-265" rx="69.0935" ry="26.7407"/>
<text text-anchor="middle" x="112.874" y="-268.8" font-family="Times,serif" font-size="14.00">id Neurona: 12</text>
<text text-anchor="middle" x="112.874" y="-253.8" font-family="Times,serif" font-size="14.00">Categoría: &#39;A&#39;</text>
</g>
<!-- item88TRO -->
<g id="node4" class="node"><title>item88TRO</title>
<ellipse fill="none" stroke="black" cx="112.874" cy="-193" rx="76.2353" ry="26.7407"/>
<text text-anchor="middle" x="112.874" y="-196.8" font-family="Times,serif" font-size="14.00">id Neurona: 87</text>
<text text-anchor="middle" x="112.874" y="-181.8" font-family="Times,serif" font-size="14.00">Categoría: &#39;TRO&#39;</text>
</g>
<!-- item101 -->
<g id="node5" class="node"><title>item101</title>
<ellipse fill="none" stroke="black" cx="112.874" cy="-121" rx="96.7474" ry="26.7407"/>
<text text-anchor="middle" x="112.874" y="-124.8" font-family="Times,serif" font-size="14.00">id Neurona: 101</text>
<text text-anchor="middle" x="112.874" y="-109.8" font-family="Times,serif" font-size="14.00">Categoría: &#39;CUATRO&#39;</text>
</g>
</g>
</svg>
