<?xml version="1.0" encoding="UTF-8" standalone="no"?>
<!DOCTYPE svg PUBLIC "-//W3C//DTD SVG 1.1//EN"
 "http://www.w3.org/Graphics/SVG/1.1/DTD/svg11.dtd">
<!-- Generated by graphviz version 2.38.0 (20140413.2041)
 -->
<!-- Title: net_neuron Pages: 1 -->
<svg width="193pt" height="316pt"
 viewBox="0.00 0.00 192.74 316.00" xmlns="http://www.w3.org/2000/svg" xmlns:xlink="http://www.w3.org/1999/xlink">
<g id="graph0" class="graph" transform="scale(1 1) rotate(0) translate(4 312)">
<title>net_neuron</title>
<polygon fill="white" stroke="none" points="-4,4 -4,-312 188.735,-312 188.735,4 -4,4"/>
<g id="clust3" class="cluster"><title>cluster_2</title>
<polygon fill="none" stroke="black" points="10.1213,-8 10.1213,-78 174.614,-78 174.614,-8 10.1213,-8"/>
</g>
<g id="clust85" class="cluster"><title>cluster_84</title>
<polygon fill="none" stroke="black" points="8,-86 8,-300 176.735,-300 176.735,-86 8,-86"/>
</g>
<!-- item113 -->
<g id="node1" class="node"><title>item113</title>
<ellipse fill="none" stroke="black" cx="92.3675" cy="-43" rx="74.4932" ry="26.7407"/>
<text text-anchor="middle" x="92.3675" y="-46.8" font-family="Times,serif" font-size="14.00">id Neurona: 113</text>
<text text-anchor="middle" x="92.3675" y="-31.8" font-family="Times,serif" font-size="14.00">Categoría: &#39;2&#39;</text>
</g>
<!-- item84DO -->
<g id="node2" class="node"><title>item84DO</title>
<ellipse fill="none" stroke="black" cx="92.3675" cy="-265" rx="71.3357" ry="26.7407"/>
<text text-anchor="middle" x="92.3675" y="-268.8" font-family="Times,serif" font-size="14.00">id Neurona: 65</text>
<text text-anchor="middle" x="92.3675" y="-253.8" font-family="Times,serif" font-size="14.00">Categoría: &#39;DO&#39;</text>
</g>
<!-- item84S -->
<g id="node3" class="node"><title>item84S</title>
<ellipse fill="none" stroke="black" cx="92.3675" cy="-193" rx="69.0935" ry="26.7407"/>
<text text-anchor="middle" x="92.3675" y="-196.8" font-family="Times,serif" font-size="14.00">id Neurona: 30</text>
<text text-anchor="middle" x="92.3675" y="-181.8" font-family="Times,serif" font-size="14.00">Categoría: &#39;S&#39;</text>
</g>
<!-- item99 -->
<g id="node4" class="node"><title>item99</title>
<ellipse fill="none" stroke="black" cx="92.3675" cy="-121" rx="76.2353" ry="26.7407"/>
<text text-anchor="middle" x="92.3675" y="-124.8" font-family="Times,serif" font-size="14.00">id Neurona: 99</text>
<text text-anchor="middle" x="92.3675" y="-109.8" font-family="Times,serif" font-size="14.00">Categoría: &#39;DOS&#39;</text>
</g>
</g>
</svg>
