<?xml version="1.0" encoding="UTF-8" standalone="no"?>
<!DOCTYPE svg PUBLIC "-//W3C//DTD SVG 1.1//EN"
 "http://www.w3.org/Graphics/SVG/1.1/DTD/svg11.dtd">
<!-- Generated by graphviz version 2.38.0 (20140413.2041)
 -->
<!-- Title: net_neuron Pages: 1 -->
<svg width="201pt" height="316pt"
 viewBox="0.00 0.00 201.22 316.00" xmlns="http://www.w3.org/2000/svg" xmlns:xlink="http://www.w3.org/1999/xlink">
<g id="graph0" class="graph" transform="scale(1 1) rotate(0) translate(4 312)">
<title>net_neuron</title>
<polygon fill="white" stroke="none" points="-4,4 -4,-312 197.22,-312 197.22,4 -4,4"/>
<g id="clust4" class="cluster"><title>cluster_3</title>
<polygon fill="none" stroke="black" points="14.364,-8 14.364,-78 178.856,-78 178.856,-8 14.364,-8"/>
</g>
<g id="clust87" class="cluster"><title>cluster_86</title>
<polygon fill="none" stroke="black" points="8,-86 8,-300 185.22,-300 185.22,-86 8,-86"/>
</g>
<!-- item132 -->
<g id="node1" class="node"><title>item132</title>
<ellipse fill="none" stroke="black" cx="96.6102" cy="-43" rx="74.4932" ry="26.7407"/>
<text text-anchor="middle" x="96.6102" y="-46.8" font-family="Times,serif" font-size="14.00">id Neurona: 132</text>
<text text-anchor="middle" x="96.6102" y="-31.8" font-family="Times,serif" font-size="14.00">Categoría: &#39;3&#39;</text>
</g>
<!-- item86TRE -->
<g id="node2" class="node"><title>item86TRE</title>
<ellipse fill="none" stroke="black" cx="96.6102" cy="-265" rx="75.8212" ry="26.7407"/>
<text text-anchor="middle" x="96.6102" y="-268.8" font-family="Times,serif" font-size="14.00">id Neurona: 85</text>
<text text-anchor="middle" x="96.6102" y="-253.8" font-family="Times,serif" font-size="14.00">Categoría: &#39;TRE&#39;</text>
</g>
<!-- item86S -->
<g id="node3" class="node"><title>item86S</title>
<ellipse fill="none" stroke="black" cx="96.6102" cy="-193" rx="69.0935" ry="26.7407"/>
<text text-anchor="middle" x="96.6102" y="-196.8" font-family="Times,serif" font-size="14.00">id Neurona: 30</text>
<text text-anchor="middle" x="96.6102" y="-181.8" font-family="Times,serif" font-size="14.00">Categoría: &#39;S&#39;</text>
</g>
<!-- item100 -->
<g id="node4" class="node"><title>item100</title>
<ellipse fill="none" stroke="black" cx="96.6102" cy="-121" rx="80.7205" ry="26.7407"/>
<text text-anchor="middle" x="96.6102" y="-124.8" font-family="Times,serif" font-size="14.00">id Neurona: 100</text>
<text text-anchor="middle" x="96.6102" y="-109.8" font-family="Times,serif" font-size="14.00">Categoría: &#39;TRES&#39;</text>
</g>
</g>
</svg>
